<?xml version="1.0" encoding="UTF-8" standalone="no"?>
<!DOCTYPE svg PUBLIC "-//W3C//DTD SVG 1.1//EN" "http://www.w3.org/Graphics/SVG/1.1/DTD/svg11.dtd">
<svg xmlns="http://www.w3.org/2000/svg" xmlns:xlink="http://www.w3.org/1999/xlink" version="1.1" width="104.47222pt" height="32.555555pt" viewBox="0 0 104.47222 32.555555">
<g enable-background="new">
<symbol id="font_0_1e">
<path d="M 0 .056 C 0 .056666674 .0066666665 .058666674 .02 .062000008 C .033999999 .065333347 .04766667 .07066668 .061000006 .07800001 C .07433334 .08466667 .083000008 .09366667 .087000008 .105000007 L .08800001 .158 C .08800001 .17733334 .086333338 .19933336 .083000008 .224 C .08033334 .252 .079 .27300004 .079 .287 C .079 .30366669 .079333338 .31633339 .080000009 .32500003 C .08133334 .33366669 .083666678 .3446667 .087000008 .35800005 L .080000009 .808 C .080000009 .81066676 .08133334 .81400009 .08400001 .818 C .087333347 .8226667 .090333338 .8256667 .093 .827 C .09566667 .82633337 .105666678 .82600006 .12300001 .82600006 C .13633335 .82600006 .147 .8273334 .155 .83000007 C .16366668 .8326667 .17066668 .83400008 .17600002 .83400008 C .17933335 .83400008 .18266668 .8316667 .186 .827 C .18933334 .82233336 .19100003 .8183334 .19100002 .815 C .19033335 .81100007 .18933334 .80633339 .18800001 .801 C .18666667 .7963333 .18566668 .7926667 .185 .79 L .185 .73700007 C .185 .70433339 .18699999 .6746667 .19100002 .64800009 C .18699999 .6433334 .185 .6366667 .185 .628 L .186 .614 C .186 .6100001 .18566668 .60733339 .185 .606 C .185 .60400006 .18300002 .5956667 .179 .58100005 C .17500001 .56500008 .17300003 .55633339 .17300001 .555 C .17300003 .55233338 .17433334 .54766669 .17700002 .541 C .17966669 .535 .18100001 .52800008 .18100001 .52000007 C .18100001 .5113334 .17966669 .50600007 .17700002 .504 C .17433334 .5026667 .17300003 .50133338 .17300001 .5 C .17366667 .49866668 .17466669 .49666668 .17600002 .49400003 C .17800002 .492 .17933333 .49 .18 .48800005 C .18 .4846667 .17866667 .4786667 .17600002 .47000004 C .17333335 .46133337 .172 .44900004 .172 .43300004 C .172 .39366666 .17633336 .37300004 .185 .37100003 L .185 .26600004 L .18 .259 L .185 .252 C .18366666 .24666667 .18266668 .24000001 .18200001 .23200003 C .18133335 .22466667 .18066669 .21933335 .18 .21600002 L .18 .21000001 C .18066669 .20466668 .18166667 .19733334 .18300002 .18800001 C .18433334 .17933335 .185 .17233335 .185 .16700001 C .185 .102333348 .17366667 .060000007 .15100001 .040000008 C .12900001 .020000006 .10766667 .009000003 .087000008 .0069999995 C .06633333 .0043333375 .056000007 .002000004 .056 0 L 0 0 L 0 .056 M .112 .666 C .12733335 .666 .14033334 .66866669 .15100001 .674 C .16233336 .68 .16800003 .6896667 .16800002 .703 C .16800003 .7156667 .16533335 .7353334 .16000001 .762 C .15666668 .7786667 .155 .79033336 .155 .79700008 L .09900001 .808 L .098000008 .79700008 C .09800001 .77833339 .102666679 .76900008 .112 .76900008 C .11533334 .76900008 .11900001 .77000007 .12300001 .772 C .12166667 .76800009 .119333337 .7623334 .116000007 .755 C .112666677 .74766668 .11066667 .74300006 .11000001 .741 L .127 .741 C .127 .737 .123666677 .7313333 .117000009 .72400006 C .110333349 .7173334 .10633334 .71033337 .105000007 .703 L .112 .703 L .148 .741 L .148 .72900006 L .112 .679 L .112 .666 M .142 .66 C .13133334 .6593334 .123333338 .6576667 .118 .65500006 C .113333348 .6523333 .11100001 .647 .11100001 .63900008 L .112 .63000008 L .142 .66 M .16100002 .66 C .15166669 .65133336 .14166668 .6416667 .13100001 .63100007 C .121000017 .6203334 .116000007 .61266669 .116000007 .60800006 C .116000007 .6066667 .116333339 .606 .117000009 .606 C .13700001 .60666677 .15033335 .60933336 .157 .614 C .16366668 .6186667 .16700001 .63000008 .16700001 .64800009 C .16633334 .6486667 .16533335 .6506667 .164 .65400007 C .16266668 .6573334 .16166668 .6593334 .16100002 .66 M .148 .59800007 C .13133334 .5966667 .120666678 .59433338 .116000007 .591 C .11133334 .5876667 .109000008 .57900008 .109000008 .56500008 C .115666668 .56500008 .124000009 .5683334 .134 .57500007 C .14400001 .5823334 .149 .58900007 .149 .595 L .148 .59800007 M .117000009 .537 C .117000009 .5336667 .11933335 .5316667 .12400001 .531 C .12866669 .53033336 .13300002 .53000006 .13700001 .53000006 L .14 .53000006 C .14999999 .53000006 .155 .5323334 .155 .537 L .155 .58100005 C .15166667 .5776667 .14433335 .57066676 .133 .56 C .12233334 .55 .117000009 .54233339 .117000009 .537 M .117000009 .48700006 C .124333348 .48700009 .13166668 .4893334 .13900002 .49400003 C .14633334 .49933339 .15 .50533339 .15 .512 C .15 .51533338 .14933335 .5176667 .148 .51900008 L .117000009 .512 L .117000009 .48700006 M .142 .444 C .12866669 .444 .11966667 .43866668 .11500001 .42800004 C .111 .41733337 .109000008 .40566669 .109000008 .393 C .12566667 .393 .13700001 .40366666 .143 .425 C .149 .44633333 .15200001 .46800003 .15200001 .49 C .14600002 .49 .14066668 .4876667 .136 .48300005 C .13200002 .47833336 .128 .47333337 .12400001 .46800006 C .120666678 .46266673 .11833334 .45900003 .117000009 .45700003 C .120333347 .451 .12866669 .4466667 .142 .444 M .13100001 .37100003 C .13100001 .35633338 .12833335 .34900008 .12300001 .34900005 C .12166667 .34900008 .12033334 .34933339 .119 .35000003 C .11833334 .35066668 .11733333 .35099999 .116000007 .351 C .11200001 .35099999 .11000001 .34633336 .11000001 .337 C .128 .337 .14133334 .34433333 .15 .35900004 C .15933334 .37433339 .164 .39166669 .164 .411 C .154 .411 .14466667 .40700004 .136 .39900003 C .12733335 .39100004 .123 .3816667 .12300001 .37100003 L .13100001 .37100003 M .117000009 .30200003 C .121000017 .30200003 .12933333 .30366669 .142 .307 C .15466668 .31033338 .16100002 .31300003 .16100002 .315 L .16100002 .347 C .15233334 .347 .14400001 .34300003 .136 .33500005 C .128 .32766668 .120000008 .319 .112 .30900003 L .117000009 .30200003 M .134 .292 C .124000009 .292 .11733333 .29033334 .11400001 .287 C .11066667 .28433336 .109000008 .27833335 .109000008 .26900003 C .124333348 .26900003 .13733335 .27633337 .148 .291 L .134 .292 M .157 .279 C .15366668 .279 .14600002 .27533335 .134 .268 C .12266668 .2606667 .117000009 .25533334 .117000009 .252 L .117000009 .238 C .13100001 .23799999 .14033334 .23866667 .14500001 .24000001 C .15033335 .24133335 .15366668 .24466668 .155 .25 C .15633334 .25533334 .157 .26500003 .157 .279 M .112 .15500002 C .11200001 .15300001 .11333334 .149 .116000007 .143 C .11866667 .13700001 .121000017 .13266666 .12300001 .13000001 C .12766667 .13133335 .134 .13533335 .142 .142 C .15066667 .148 .155 .15333335 .155 .158 C .155 .16000001 .15100001 .16233336 .143 .165 C .13566669 .16766668 .13133335 .17033334 .13000001 .17300001 C .13533335 .17166667 .13900002 .171 .141 .171 C .14833334 .171 .15266668 .17366667 .15400002 .179 C .156 .18433334 .157 .193 .157 .20500002 C .15166667 .205 .14666666 .20233335 .142 .19700001 C .13800001 .19166668 .13533335 .18900001 .134 .18900001 L .13000001 .19100002 C .13133335 .19566667 .13366668 .19966668 .13700001 .20300001 C .14033334 .20633334 .14233335 .20833333 .143 .20900002 C .15166667 .21633335 .156 .22366667 .156 .231 C .148 .231 .13933335 .23033335 .13000001 .22900002 C .12133334 .22766668 .117000009 .22566669 .117000009 .22300002 L .118 .19700001 C .118 .18633335 .117000009 .17733336 .11500001 .17000002 C .113000009 .16333334 .11200001 .15833335 .112 .15500002 M .155 .13200002 C .14366667 .13200002 .13533335 .12700002 .13000001 .11700001 C .14 .11700001 .14666668 .11800001 .15 .120000008 C .15333334 .12133334 .155 .12533336 .155 .13200002 M .15200001 .09300001 C .14666668 .09300002 .14233335 .09233334 .13900002 .091000009 C .13566667 .08900001 .13266666 .08566668 .13000001 .08100001 C .13133335 .080333348 .13300002 .080000009 .135 .080000009 C .13700001 .079333338 .13833334 .079 .13900002 .079 C .14966667 .079 .155 .08266667 .155 .09 C .155 .09200001 .154 .09300002 .15200001 .09300001 M .11500001 .062000008 C .091 .062000008 .079 .055333344 .079 .04200001 C .079 .041333345 .079333338 .04100001 .080000009 .04100001 C .08200001 .04100001 .08966667 .04400001 .10300001 .050000006 C .11766667 .056666674 .12666667 .060333339 .13000001 .061000006 L .11500001 .062000008 Z "/>
</symbol>
<symbol id="font_0_62">
<path d="M .352 .479 C .40066669 .44633333 .43533335 .40933336 .456 .368 C .47733335 .32666669 .488 .276 .488 .21600002 L .48700003 .183 C .48566667 .17966669 .483 .177 .479 .17500001 C .47566668 .17300003 .47300003 .171 .47100003 .169 C .469 .16700001 .46800003 .16333334 .46800003 .15800002 C .46800003 .15533336 .46833337 .15266668 .469 .15 C .4696667 .14800002 .47133336 .14633335 .474 .14500001 C .47000004 .14500001 .4666667 .14233335 .46400003 .13700001 C .462 .13233334 .45866669 .123666677 .45400004 .11100001 C .4486667 .09233334 .44333337 .08100001 .43800003 .07700001 C .40133334 .049666674 .36233334 .030000002 .321 .018000002 C .27966667 .0060000007 .23400001 0 .18400002 0 L .106 .049000004 C .09466667 .049000008 .08533334 .052666669 .078 .060000004 C .07066667 .06733333 .06333333 .07833334 .056 .093 C .051333339 .10033333 .04633333 .10766667 .041 .115 C .035666668 .123 .030000002 .12900001 .024000003 .13300002 C .014666666 .15566667 .008333333 .179 .004999999 .20300001 C .0016666664 .22766668 0 .25533334 0 .286 L .038000004 .39200003 C .03866667 .39333336 .04666667 .40200005 .062 .418 C .078 .43400003 .09200001 .44766668 .104 .45900003 C .12200001 .47500003 .14433335 .48833335 .17100002 .499 C .19766669 .5096667 .223 .51500007 .24700003 .51500007 C .26433335 .51500007 .282 .5116667 .3 .50500008 C .31866668 .49833337 .336 .48966668 .352 .479 M .12500002 .42900003 C .12500002 .42633335 .12200001 .423 .116000007 .419 C .11066667 .41566668 .108 .41200004 .108 .40800003 L .122 .40800003 C .14333335 .40800003 .15400002 .411 .15400002 .41700004 L .136 .42900003 C .136 .43033339 .13666667 .4316667 .13800001 .43300004 C .13933335 .43433333 .14066668 .43500004 .142 .435 C .14666669 .43500004 .15233335 .43366669 .15900001 .43100003 C .16633335 .42900003 .17133336 .428 .17400001 .428 C .17933335 .428 .18433334 .42966668 .18900001 .43300004 C .19366668 .43633334 .19866668 .441 .20400001 .44700004 C .21200001 .45633338 .22000003 .46233336 .22800002 .465 L .21900001 .465 L .21200001 .465 C .20800002 .465 .205 .46533335 .20300001 .46600003 C .20100002 .46733336 .19900002 .46933333 .19700001 .472 C .191 .472 .18466668 .47033335 .17800002 .467 C .172 .4643334 .16466668 .4596667 .15600002 .453 C .14266669 .4436667 .13166668 .43766666 .123 .435 C .124333348 .433 .12500002 .431 .12500002 .42900003 M .286 .472 C .284 .472 .27933333 .46866668 .272 .462 C .26533333 .45533336 .261 .45033337 .259 .44700004 L .284 .442 C .31066669 .43733336 .327 .43500004 .333 .435 C .33633337 .43500004 .33933334 .43533335 .342 .43600003 C .3446667 .4366667 .34800003 .43833337 .352 .441 C .34533335 .4496667 .335 .45700003 .321 .46300004 C .30766667 .469 .296 .472 .286 .472 M .343 .42900003 C .34300003 .42433334 .346 .4206667 .352 .418 C .358 .416 .364 .41500006 .37 .41500003 L .37 .42900003 L .343 .42900003 M .262 .418 C .23933335 .418 .22033334 .41400004 .20500002 .40600003 C .18966668 .398 .17266667 .38500003 .15400002 .367 C .15000002 .36366669 .14733334 .35666669 .14600002 .34600003 C .14533335 .34 .14433335 .33533336 .143 .33200003 C .14166668 .3286667 .13933335 .326 .136 .324 C .13333334 .318 .12966669 .30466668 .12500002 .284 C .120333347 .26400004 .11766667 .25066669 .117000009 .24400002 C .116333339 .24000001 .116000007 .23466666 .116000007 .22800002 C .116000007 .172 .145 .13 .20300001 .102000009 L .25 .1 C .29 .1 .32066668 .10633334 .342 .119 C .364 .13166668 .37899999 .15033335 .387 .17500001 C .3956667 .19966668 .4 .23200001 .4 .272 C .4 .28266669 .39699999 .29833336 .391 .319 C .3856667 .34033335 .38033334 .35633336 .375 .367 C .35700003 .37100003 .34066669 .38533334 .326 .41000004 C .31866668 .41 .30833335 .41133336 .29500003 .414 C .28033335 .41666667 .26933334 .418 .262 .418 M .38500003 .418 C .38166667 .418 .37899999 .41633336 .377 .41300003 C .37566666 .41033338 .375 .40733335 .375 .404 C .375 .39400003 .37933336 .38766668 .388 .38500003 C .38933335 .3856667 .39233337 .38733337 .397 .39000003 C .40233336 .3926667 .40566669 .39533339 .407 .398 C .40433336 .40066669 .4 .40466667 .39400003 .41000004 C .38866667 .41533337 .3856667 .418 .38500003 .418 M .095 .404 C .092999998 .404 .08900001 .40133334 .083000008 .396 C .07766667 .3906667 .07466667 .38633336 .074 .38300003 C .074 .375 .07966667 .37100003 .091000009 .37100003 C .095000009 .37100003 .09966666 .37100003 .105 .37100003 C .111 .37166668 .115 .37233333 .117000009 .373 L .123 .398 L .095 .404 M .39400003 .38000003 L .39400003 .37100003 C .40533338 .37100003 .41166667 .37400005 .41300003 .38000003 L .39400003 .38000003 M .065 .367 C .058333335 .367 .053666668 .3626667 .051 .354 C .048333333 .34533335 .047000003 .337 .047 .329 C .058333339 .329 .06966667 .3313333 .081 .336 C .09233334 .34066666 .1 .347 .104 .35500003 C .093333337 .363 .08033333 .367 .065 .367 M .433 .345 C .433 .35099999 .432 .35600005 .43 .36 C .428 .3646667 .42466668 .367 .42000003 .367 C .4106667 .367 .40600003 .364 .40600003 .358 C .40600003 .34933333 .415 .345 .433 .345 M .083000008 .317 C .091 .317 .096666667 .31833337 .1 .321 C .104 .3236667 .10733333 .3286667 .11000001 .336 L .107 .337 C .10300001 .337 .098 .3346667 .092 .33 C .086 .32533337 .083000008 .321 .083000008 .317 M .419 .322 C .42233337 .322 .42533336 .32333336 .428 .326 C .43133334 .32933335 .433 .33266668 .433 .336 L .419 .336 L .419 .322 M .456 .293 C .456 .29700003 .45433335 .30200003 .451 .308 C .44833336 .31466667 .44500003 .31800003 .441 .31800003 C .43033336 .31800003 .42500005 .314 .425 .306 C .42500005 .30266667 .426 .2986667 .428 .294 C .4306667 .29 .432 .28700004 .432 .285 L .432 .284 C .432 .28200004 .431 .28 .42900003 .278 C .42766667 .276 .42633335 .275 .425 .275 L .42900003 .27400003 C .43033339 .27400003 .433 .27566669 .437 .279 C .441 .283 .4436667 .28533335 .44500003 .286 C .44766668 .286 .45000003 .28666667 .45200003 .28800003 C .4546667 .29 .456 .29166667 .456 .293 M .058 .306 C .047333335 .306 .039333337 .3033333 .034 .298 C .029333333 .29266668 .027 .28433336 .027 .273 C .035666668 .273 .044 .27533333 .052 .28 C .060000004 .28466667 .069000009 .291 .079 .299 C .079 .30366669 .074 .306 .064 .306 C .06266666 .306 .061666669 .30566667 .060999998 .305 C .06033333 .305 .059666668 .305 .059 .305 L .058 .305 L .058 .306 M .086 .257 C .09 .257 .092 .26266668 .092 .27400003 C .092 .28533338 .092 .29166667 .092 .293 C .08933333 .29033337 .085333328 .28766669 .08 .285 C .07466667 .28233335 .071 .28033338 .069 .279 C .051 .27100004 .04066667 .26366667 .038000004 .257 L .086 .257 M .45900003 .236 C .45900003 .262 .456 .275 .45000003 .275 L .425 .24900002 C .42766667 .24433334 .43233336 .24100001 .439 .23900002 C .44566668 .237 .45233334 .236 .45900003 .236 M .027999999 .206 C .035333337 .20600002 .04633333 .20933335 .060999998 .21600002 C .075666669 .22333335 .083000008 .23033333 .083000008 .23700002 L .038000004 .23700002 C .03133333 .23700004 .027999999 .22666669 .027999999 .206 M .42400003 .181 C .44933335 .181 .462 .18966668 .462 .20700002 C .462 .21366668 .45933334 .21766667 .45400004 .21900001 C .44933335 .221 .44233335 .222 .433 .222 C .433 .21533335 .43133334 .20866668 .428 .20200002 C .42533336 .19533335 .42400003 .18833333 .42400003 .181 M .095 .22100002 C .09233334 .22100002 .086 .21866668 .076 .21400002 C .06666666 .20933335 .060000004 .205 .056 .201 L .086 .194 C .08866667 .194 .090666677 .19666668 .092 .20200002 C .094000007 .208 .095 .21433334 .095 .22100002 M .049000004 .151 C .050333334 .15166667 .053666668 .15366668 .059 .157 C .065000008 .16100002 .06966667 .165 .073 .169 C .077 .17366667 .079 .17833333 .079 .183 L .068 .18400002 C .064666669 .18400002 .059333337 .18333335 .052 .18200001 C .045333338 .18133335 .042000008 .17933333 .042000005 .176 L .049000004 .151 M .060999998 .13300002 C .07300001 .135 .087333347 .141 .104 .151 C .104 .15633334 .10300001 .16100002 .101 .16500002 C .09966666 .16900002 .09766666 .171 .095 .171 L .092 .17000002 L .060999998 .139 L .060999998 .13300002 M .423 .144 C .431 .144 .43766666 .146 .44300003 .15 C .44833336 .15466668 .451 .16133334 .451 .17000002 L .423 .17000002 C .423 .16533335 .42133335 .16066669 .418 .15600002 C .41533337 .15133335 .41166667 .14766668 .407 .14500001 L .423 .144 M .074 .11400001 C .08266667 .09666667 .089666668 .08800001 .095 .08800001 C .10233333 .08800001 .11000001 .090666677 .11800001 .09600001 C .126 .102000009 .13000001 .108666669 .13000001 .116000007 C .119333337 .116000007 .11266667 .11333334 .11000001 .108 L .11000001 .139 L .074 .12100001 L .074 .11800001 L .074 .11400001 M .379 .1 C .39100004 .1 .4026667 .10166667 .414 .105000007 C .426 .109000008 .432 .11633334 .432 .127 C .432 .13100001 .42633335 .13300002 .41500003 .13300002 C .40633337 .13300002 .398 .12966667 .39000003 .123 C .38266669 .116333339 .37900005 .108666669 .379 .1 M .123 .065000008 C .12766667 .065000008 .13166668 .06566667 .135 .067 C .13833334 .069000009 .14166668 .07233334 .14500001 .07700001 L .14500001 .057000005 C .15300001 .057 .16066668 .058666674 .16800002 .062000004 C .17533334 .06533334 .17900002 .07033334 .17900002 .07700001 C .17900002 .08166667 .17433335 .086 .165 .09 C .15633334 .094000007 .14966668 .09600001 .14500001 .09600001 L .142 .09600001 L .104 .08400001 C .104 .07866667 .10566667 .07400001 .109000008 .07000001 C .113000009 .06666667 .11766667 .065000008 .123 .065000008 M .39400003 .091000009 C .39133335 .091 .38533334 .091 .37600003 .091000009 C .36733333 .091 .35933338 .08966667 .352 .087000008 C .34533335 .08500001 .339 .08166667 .333 .07700001 C .32500003 .071 .32066668 .068 .32 .068 L .24000003 .068 L .22200002 .048 C .2306667 .044 .2386667 .041333338 .246 .040000004 C .25333334 .03933334 .26233334 .039000006 .273 .039000006 C .28566668 .039000006 .301 .042333336 .319 .049000004 C .33766667 .05566667 .35466669 .06266668 .37 .07000001 C .386 .078 .39400003 .08266667 .39400003 .08400001 L .39400003 .091000009 M .41300003 .071 L .411 .071 C .40566669 .071 .40199999 .069000009 .4 .065000008 L .41300003 .071 M .16400002 .042000005 C .18266668 .042000008 .19200002 .050333337 .19200002 .067 C .18466668 .067 .17800002 .064333338 .172 .059000005 C .16666669 .054333334 .16400002 .048666669 .16400002 .042000005 M .21000001 .058000003 C .21666669 .058000003 .22266668 .060333339 .22800002 .065000008 L .21900001 .066 L .21500002 .066 C .20833336 .066 .20433335 .063666667 .20300001 .059000005 L .21000001 .058000003 M .345 .039000006 C .349 .039000006 .3516667 .03933334 .35300002 .040000004 C .35500003 .041333338 .35633336 .044 .357 .048 L .338 .040000004 L .345 .039000006 M .296 .022000002 L .29 .023000002 C .286 .023000002 .28300003 .022333334 .28100003 .021000002 C .279 .020333335 .27766667 .018333335 .277 .015000001 L .296 .022000002 Z "/>
</symbol>
<symbol id="font_0_5e">
<path d="M .16600001 .08400001 C .17933335 .07933334 .18600004 .07500001 .18600002 .071 C .18600004 .067 .18066669 .051999999 .17000002 .026 C .16400002 .0139999999 .16100002 .0069999995 .16100002 .004999999 L .14800002 0 L .14800002 .007999999 C .14 .007999999 .13266668 .007666666 .12600002 .0069999995 C .11933335 .0063333327 .11300001 .005999999 .10700001 .005999999 C .09766668 .005999999 .09033334 .007999999 .08500001 .012 C .080333348 .015333335 .07800001 .022666669 .07800001 .034 C .06066667 .034 .04766667 .040333336 .039 .053000004 C .030333335 .06566667 .021333337 .08466667 .011999998 .11 C .007333332 .17000002 .0039999994 .23133333 .0020000004 .294 C .0006666668 .35733334 0 .4316667 0 .517 L 0 .58100005 C 0 .639 .0023333345 .6876667 .007000003 .727 C .018333335 .733 .03266667 .737 .05 .739 C .052666669 .7396667 .058666666 .7406667 .068 .74200007 C .07733334 .744 .08566668 .74700006 .09300001 .75100007 L .096000019 .75200006 C .102000009 .75200006 .105 .7483334 .105000007 .741 C .105 .68766668 .10300001 .60700008 .09900001 .499 C .09633335 .44633333 .09433335 .39266668 .09300001 .338 C .09300002 .32333336 .091666679 .30333335 .089 .278 C .088333349 .27266667 .08766668 .2656667 .08700001 .257 C .08633334 .24833334 .086 .23800002 .08600001 .22600001 C .086 .18266668 .09133335 .14800002 .10200001 .12200001 C .11266669 .09666667 .13400002 .084000017 .16600001 .08400001 M .069000009 .707 C .051666667 .707 .040333336 .7026667 .035 .694 C .029666668 .68600007 .027 .6723334 .026999999 .653 L .041000006 .653 C .041000006 .6516667 .041333338 .6506667 .042 .65000006 C .04266667 .6493333 .043 .6486667 .043 .648 C .043 .6466667 .041333334 .64500007 .038 .643 C .035333337 .6416667 .033000005 .64100006 .031 .64100006 L .031 .60400006 C .033000005 .60666677 .037000006 .61200007 .043 .62 C .049666674 .6286667 .054000006 .6333334 .056000007 .634 C .055333336 .632 .054000006 .6276667 .052000006 .621 C .05000001 .615 .047000007 .60933336 .043 .60400006 C .043666673 .60400006 .045 .6036667 .047000003 .60300007 C .049 .60300007 .051333336 .60300007 .054 .60300007 C .064 .60300007 .069000009 .605 .069000009 .609 L .069000009 .707 M .056000007 .634 L .056000007 .634 M .031 .39900003 C .033000005 .3956667 .03933334 .39399997 .05 .394 C .048000006 .39133335 .045333338 .38900004 .042 .387 C .03866667 .3856667 .036000004 .38400004 .034000007 .382 C .032 .38 .030999998 .377 .031 .373 C .030999998 .3676667 .032333334 .36233334 .035 .357 C .037666669 .3516667 .039 .34533335 .039 .338 L .062000004 .338 L .062000004 .37 L .05 .37 C .058000003 .38066665 .062000004 .3956667 .062000004 .41500003 C .062000004 .419 .061000006 .42433334 .059000005 .431 C .057000009 .43766666 .056000007 .443 .056000007 .447 L .062000004 .472 C .06666667 .48733334 .069000009 .50266668 .069000009 .518 C .068333338 .52000007 .06733333 .522 .066 .524 C .06466667 .52666667 .06333334 .5286667 .062000004 .53000006 C .062000004 .52066668 .058000003 .51600006 .05 .51600006 L .043 .518 C .04766667 .52000007 .05066667 .523 .052000006 .527 C .05333334 .53099998 .054 .536 .054 .542 L .069000009 .542 L .069000009 .579 C .065000008 .57433339 .05933334 .5686667 .052000006 .56200006 C .045333338 .55600008 .041333334 .55300006 .040000004 .55300006 L .037000006 .554 C .049666674 .568 .058000003 .5803333 .062000004 .591 C .05466667 .591 .046666668 .59 .038 .588 C .029333333 .58666667 .025 .583 .025000003 .577 C .025 .56166669 .027 .55100008 .031 .545 C .035 .53900006 .037000006 .5356667 .037000006 .535 C .037000006 .5336667 .035 .52833339 .031 .51900008 C .027 .51033338 .025 .5036667 .025000003 .499 C .026333332 .4996667 .028000003 .5006667 .030000005 .50200006 C .032666673 .504 .035000009 .50500008 .037000006 .50500008 C .038333339 .50500008 .039666669 .504 .041000006 .50200006 C .042333336 .5006667 .043 .4996667 .043 .499 C .041000006 .497 .03866667 .49366669 .036000004 .48900003 C .033333336 .48433338 .031666668 .48066668 .031 .47800002 C .030999998 .474 .03266667 .47133336 .036000004 .47 C .040000004 .46933333 .042333336 .46866668 .043 .46800003 C .03566667 .466 .031000004 .46066667 .029000003 .45200003 C .027666668 .44333337 .027 .43366669 .026999999 .423 C .032333334 .423 .036666667 .42433334 .040000004 .42700003 C .043333338 .43033336 .04566667 .432 .047000003 .432 L .05 .431 C .048000006 .42566667 .044666668 .41966669 .040000004 .41300003 C .036000004 .40633334 .033000005 .40166668 .031 .39900003 M .06300001 .327 C .05366667 .327 .047000007 .32433335 .043 .319 C .039000006 .31366668 .037000006 .30566667 .037000006 .29500003 C .038333339 .29633335 .041666669 .2986667 .047000003 .30200003 C .053000004 .30533336 .057000009 .30900003 .059000005 .313 C .06166667 .317 .06300001 .3216667 .06300001 .327 M .056000007 .08500001 C .059333337 .08500001 .06333333 .09200001 .068 .106000009 C .07266667 .120000008 .075 .12966667 .075 .135 C .075 .14166667 .07400001 .14600002 .07200001 .148 C .07066668 .15 .06733334 .15100001 .062000004 .15100001 L .062000004 .252 L .056000007 .25800003 C .061333345 .25800003 .06400001 .271 .06400001 .297 C .05733334 .297 .051000004 .29333333 .045000007 .286 C .039000006 .27933333 .036000004 .27233336 .036000004 .26500003 C .036000004 .26433335 .037 .263 .039 .261 C .041666669 .25966669 .043 .25866667 .043 .25800003 L .037000006 .252 L .037000006 .209 C .04166667 .20766668 .044000005 .20333334 .044000005 .19600001 C .044000005 .19133334 .043 .18400002 .041000006 .17400001 C .038333339 .16733335 .037000006 .16000001 .037000006 .15200001 C .037000006 .14466667 .040333336 .13766667 .047000003 .13100001 C .053666668 .124333348 .057 .11866667 .057 .11400001 C .057 .11200001 .055000005 .10833333 .051000004 .103 C .047000007 .09833334 .04433334 .09433333 .043 .091000009 C .043666673 .091 .04566667 .09 .049000008 .088 C .052333338 .086 .05466667 .08500001 .056000007 .08500001 M .136 .042000005 C .13666667 .04266667 .13800001 .044 .14000002 .046000005 C .14266669 .048000006 .14400001 .050333337 .14400001 .053000004 C .14400001 .054333334 .13866668 .05766667 .128 .063 C .11733333 .068333338 .10966667 .072000008 .105000007 .074 C .10300001 .074 .09966668 .07266667 .09500001 .07000001 C .09033334 .068 .08533335 .067 .08000001 .067 C .08200001 .06766667 .08433334 .06966667 .08700001 .073 C .09033334 .07633334 .09233334 .07833334 .09300001 .079 C .09300002 .083666678 .091666679 .08833334 .089 .09300001 C .08700001 .09766668 .084000017 .10100001 .08000001 .103 C .07800001 .10300001 .07466667 .099 .07000001 .091000009 C .06600001 .08366666 .06333334 .078 .062000004 .074 C .062000004 .060000004 .07033334 .049000008 .08700001 .041 C .10366667 .033000005 .11900001 .029000001 .13300002 .029000001 C .13700001 .029000001 .14033334 .031666668 .143 .037 L .136 .042000005 Z "/>
</symbol>
<symbol id="font_0_7a">
<path d="M .476 .67300006 C .47333337 .6696667 .47066666 .66333338 .468 .65400007 C .466 .64533337 .4646667 .63966676 .46400003 .637 C .46333335 .6343334 .46133337 .628 .458 .61800006 C .45533333 .60800006 .45233334 .6003334 .449 .595 C .44633333 .58966669 .443 .587 .439 .587 C .44033338 .587 .4416667 .5856667 .44300003 .58300009 C .44500003 .58033338 .44633333 .5783333 .447 .577 L .437 .55700007 C .43500004 .55300006 .433 .549 .431 .545 C .42966668 .54100009 .42833338 .53833338 .42700003 .53700008 L .418 .53700008 L .419 .51900008 C .419 .517 .41799999 .51566669 .416 .515 C .41400004 .51433339 .4106667 .51400008 .40600003 .51400008 C .40600003 .49600006 .40300004 .4766667 .397 .45600004 C .39100004 .43600003 .38266669 .41166667 .372 .38300003 C .362 .35566668 .35566668 .33733336 .35300002 .328 C .33833335 .3146667 .32866667 .30133335 .324 .28800003 C .31933335 .27533338 .316 .25966669 .314 .24100001 C .31266669 .22766668 .31100003 .21700001 .30900003 .209 C .307 .20100002 .303 .19333335 .297 .18600002 C .28966669 .17866667 .285 .17333335 .283 .17000002 C .281 .16600001 .27933333 .16166668 .278 .157 C .27733336 .15233334 .27566669 .14766668 .273 .143 L .273 .155 C .269 .15233334 .265 .14733334 .261 .14000002 C .257 .13200002 .255 .12666668 .255 .12400001 C .259 .12266668 .261 .11866667 .261 .112 C .261 .10933334 .25066669 .09266668 .23000002 .062000008 C .20933335 .03133334 .19666668 .015000001 .19200002 .012999997 C .18666668 .012333329 .17933335 .0113333319 .17000002 .010000005 C .16133334 .008666669 .15466668 .0076666676 .15 .0069999995 C .14733334 .0069999995 .14366669 .0060000026 .13900002 .004000008 C .13433336 .001333336 .13000001 0 .126 0 C .126 .0033333302 .12466667 .0066666656 .12200001 .010000005 C .11933335 .0133333359 .11800001 .016666666 .11800001 .019999996 L .11800001 .026000008 C .12466667 .046000009 .13266666 .06600001 .142 .08600001 C .15733333 .123333338 .16833334 .15333334 .17500001 .176 C .18233335 .19866668 .186 .22166668 .186 .24500002 C .186 .25233335 .18400002 .261 .18 .27100004 C .17666668 .28166668 .17266667 .28833334 .16800002 .291 L .124000009 .39000003 L .11000001 .426 C .06533334 .54600009 .039333334 .61200007 .032 .6240001 C .0106666679 .66 0 .68866667 0 .71000006 C 0 .71400007 .0076666676 .717 .023000002 .71900007 C .038333335 .72166678 .051666667 .72300007 .063 .72300007 C .07300001 .72300007 .08266667 .7213333 .09200001 .71800008 C .10133334 .71466669 .106000009 .71000006 .106000009 .704 C .13533335 .6266667 .17233335 .5466667 .21700001 .46400003 C .22033334 .45266668 .22900002 .43800006 .24300002 .42000003 C .24833334 .41333334 .253 .40633337 .257 .39900003 C .26166667 .39166669 .26466669 .38433338 .266 .37700004 C .288 .41833339 .311 .46866668 .335 .528 C .359 .588 .3753333 .6383334 .384 .679 C .3866667 .6936667 .39033333 .7026667 .395 .70600005 C .40033333 .70933338 .411 .711 .42700003 .711 C .44700004 .711 .46133337 .7083333 .47 .70300009 C .47866667 .69833347 .483 .68633338 .483 .66700008 L .476 .67300006 M .030000002 .69600006 C .030000002 .68733337 .033999999 .67700007 .042 .665 C .04266667 .66433337 .044666668 .661 .048 .65500006 C .051333336 .649 .053 .6416667 .053 .633 C .085 .633 .101 .64000007 .101 .65400007 C .101 .662 .09633333 .66899999 .087000008 .6750001 C .07833334 .6816667 .06800001 .6866667 .056 .69000008 C .044666668 .69400009 .036000004 .69600006 .030000002 .69600006 M .414 .574 C .41733334 .58000007 .42066667 .58800008 .424 .59800007 C .442 .6373334 .451 .6606667 .451 .66800007 C .451 .6726667 .45033337 .67566677 .449 .67700007 C .44833336 .6790001 .446 .68000009 .442 .68000009 C .432 .68000009 .4206667 .6736667 .408 .661 C .4213333 .6563334 .428 .6513334 .428 .646 C .428 .642 .42533336 .6386667 .42000003 .63600006 C .4206667 .6366667 .421 .6376667 .421 .63900008 C .421 .6416667 .42 .644 .418 .646 C .416 .6486667 .41400004 .65000006 .412 .65000006 C .41 .65000006 .40766669 .6486667 .405 .646 C .40233336 .6433334 .40066669 .6416667 .4 .64100006 C .40066669 .63966676 .40199999 .6380001 .404 .63600006 C .40666668 .634 .408 .632 .408 .63 C .408 .628 .40699999 .62533339 .405 .62200006 C .40366666 .6193333 .40266667 .61800006 .402 .61800006 L .414 .612 C .4053333 .612 .398 .6103333 .39200003 .607 C .3866667 .60366669 .38399998 .59833338 .384 .591 C .38399998 .5876667 .386 .58400008 .39000003 .58000007 C .38 .5726667 .375 .56666669 .375 .56200006 L .408 .56200006 C .4086667 .56200006 .4096667 .56333336 .411 .566 C .41300003 .5693334 .414 .572 .414 .574 M .080000009 .58000007 C .080000009 .5553333 .083666678 .543 .091000009 .543 C .10166667 .543 .11100001 .54866668 .11900001 .56000009 C .12766668 .5720001 .13200002 .58333346 .13200002 .59400007 C .13200002 .6006667 .13100001 .6053334 .12900001 .60800006 C .127 .6106667 .122666668 .612 .116000007 .612 C .113333348 .612 .10800001 .60966667 .10000001 .605 C .1 .60700008 .10100001 .60933336 .10300001 .612 C .10500001 .6146667 .106000009 .61666676 .106000009 .61800006 C .106000009 .62000009 .10500001 .62233337 .10300001 .625 C .10100001 .62833335 .09900001 .63 .097 .63 C .09233334 .63 .085 .629 .075 .62700006 C .065000008 .62500008 .060000004 .6226667 .060000004 .62 C .060000004 .606 .06600001 .5963333 .07800001 .591 C .09000001 .58633336 .105333339 .5826667 .124000009 .58000007 L .080000009 .58000007 M .14000002 .568 C .13466668 .568 .12766668 .5626667 .11900001 .55200007 C .110333349 .54200008 .10400001 .53300008 .10000001 .52500006 L .11800001 .52400007 C .124000009 .52400007 .13166668 .52533337 .141 .528 C .15033335 .5306667 .15766669 .53200009 .163 .53200009 C .163 .53733339 .16000001 .5446667 .15400002 .554 C .14800002 .56333336 .14333335 .568 .14000002 .568 M .357 .5 C .369 .5 .37866668 .50333335 .386 .51 C .39333336 .5166667 .39699999 .5256667 .397 .53700008 L .377 .53700008 L .39000003 .5500001 L .381 .5500001 C .37033335 .5500001 .36366669 .5453334 .361 .536 C .35833336 .5266667 .357 .5146667 .357 .5 M .18 .485 C .18 .49233333 .17833334 .49899999 .17500001 .505 C .17233335 .51100006 .168 .51533338 .16200002 .518 C .16000001 .514 .15666668 .5093334 .15200001 .50400009 C .14733334 .49866668 .14333335 .49366669 .14000002 .48900003 C .13733335 .48433338 .136 .47933338 .136 .47400005 C .16533335 .47400008 .18 .4776667 .18 .485 M .11200001 .48800005 C .117333348 .4926667 .12133334 .49866668 .124000009 .50600007 L .12100001 .507 C .117000009 .507 .11433334 .50500008 .113000009 .50100007 C .112333338 .4976667 .11200001 .49333335 .11200001 .48800005 M .372 .47100003 C .372 .47366668 .36966668 .47733335 .365 .48200003 C .365 .484 .36566667 .48633338 .367 .48900003 C .369 .49233333 .37066666 .49433337 .372 .495 L .35300002 .495 C .34966669 .489 .34399999 .4776667 .336 .46100004 C .32866667 .44500003 .32166667 .42933337 .315 .41400004 C .31166668 .40600003 .30866669 .39633335 .306 .38500003 C .304 .37366668 .303 .36433337 .303 .35700003 C .303 .349 .30566667 .34500004 .311 .34500004 L .315 .34600003 C .305 .34333334 .29633335 .33933334 .289 .33400003 C .28233335 .3286667 .27433334 .32133339 .265 .312 C .26366667 .31066669 .26000003 .307 .254 .301 C .24800003 .29566667 .24200003 .291 .23600002 .287 C .23000002 .28300003 .22366667 .28 .21700001 .27800004 L .21700001 .272 L .273 .291 C .275 .291 .27766667 .28966669 .281 .287 C .28433336 .28433336 .286 .28233335 .286 .28100003 L .285 .27800004 L .21700001 .21000001 C .24433333 .21 .26266668 .21533335 .272 .22600001 C .282 .23600002 .28933335 .24933334 .294 .266 C .2986667 .28266669 .30200003 .294 .304 .3 C .304 .30200003 .30166666 .30400003 .297 .30600003 C .29233334 .308 .28833334 .30900003 .285 .30900003 C .30433334 .31566669 .31833337 .32500003 .327 .337 C .33566667 .349 .34 .36533336 .34 .38600005 C .34 .39133335 .33766667 .3956667 .333 .39900003 L .35300002 .39900003 L .35300002 .43200005 C .34766666 .4326667 .344 .4336667 .342 .435 C .34066669 .43633334 .34 .43800006 .34 .44000004 C .34 .44133339 .34033335 .44300006 .341 .44500003 C .34166668 .44766668 .342 .45066668 .342 .45400004 C .34333334 .45400004 .34666667 .45233337 .352 .449 C .35733334 .44566668 .36100004 .444 .363 .444 C .36433337 .44533337 .36600004 .44900004 .368 .45500005 C .37066666 .46100006 .372 .46633337 .372 .47100003 M .13100001 .439 C .13766667 .4416667 .14266669 .4446667 .14600002 .448 C .15000002 .45200003 .15300001 .45733337 .15500002 .46400003 L .15300001 .46400003 C .14633334 .46400003 .14100002 .46100006 .13700001 .45500005 C .13300002 .44900004 .13100001 .4436667 .13100001 .439 M .18 .43 C .19666668 .42999999 .205 .43400003 .20500002 .44200004 C .205 .444 .20333334 .44700004 .20000002 .45100004 C .19666668 .455 .194 .45700003 .19200002 .45700003 C .18733335 .45700003 .18200003 .454 .17600002 .448 C .17000002 .442 .16700001 .43633334 .16700001 .43100003 L .18 .43 M .18 .402 C .16933334 .40200005 .16100002 .4 .15500002 .39600004 L .16200002 .38300003 L .18 .402 M .21100001 .402 L .19200002 .37700004 L .20000002 .37700004 C .216 .377 .22400002 .38100005 .224 .389 C .22400002 .39233337 .223 .39533339 .22100002 .398 C .21966668 .40066669 .21733336 .40200005 .21400002 .402 L .21100001 .402 M .24200002 .35400004 C .23600002 .354 .23033335 .35200004 .22500001 .34800003 C .21966668 .344 .21700001 .33933334 .21700001 .33400003 C .23233335 .33666668 .24266668 .34300003 .24800001 .35300002 L .24200002 .35400004 M .20500002 .29700003 C .20966669 .29700003 .216 .30000005 .224 .30600003 C .23266669 .312 .2386667 .31733335 .24200002 .32200004 L .23900001 .32200004 C .23500002 .3206667 .22866668 .31800003 .22000002 .314 C .21200001 .31066669 .20466669 .307 .19800002 .303 C .19800002 .30233336 .19866669 .30100004 .20000002 .29900003 C .20200002 .2976667 .20366669 .29700003 .20500002 .29700003 M .22300002 .24900002 C .223 .24833334 .22333336 .24800001 .224 .24800001 C .22600001 .24800001 .22833336 .24933334 .231 .252 C .23433335 .2546667 .23600002 .257 .23600002 .259 C .23600002 .25966669 .23566668 .26000003 .23500002 .26000003 C .233 .26000003 .23066668 .25866667 .22800002 .256 C .22533334 .25333334 .22366667 .25100003 .22300002 .24900002 M .21700001 .165 C .23233335 .165 .24233334 .16533335 .24700001 .16600001 C .2523333 .16666667 .25666667 .16933334 .26 .17400001 C .26333333 .17800002 .26766668 .18633335 .273 .19900002 L .266 .19900002 C .26533333 .19966668 .257 .19600003 .24100001 .18800001 C .22500001 .18 .21700001 .17533334 .21700001 .17400001 L .21700001 .165 M .21700001 .19300002 C .21033335 .19300002 .20633336 .19066668 .20500002 .18600002 L .20700002 .185 C .209 .185 .21166669 .186 .21500002 .18800001 C .21900003 .18933334 .222 .19066668 .224 .192 L .21700001 .19300002 M .22900002 .15600002 C .21700001 .15600002 .20566668 .15266668 .19500001 .146 C .18433334 .13933334 .179 .12966667 .179 .11700001 C .18100001 .11700001 .18700002 .12000001 .19700001 .12600002 C .20700002 .13200002 .21766669 .13966668 .22900002 .14900002 L .22900002 .15600002 M .16800002 .075 C .18933337 .086333338 .2066667 .097 .22000002 .10700001 C .23400001 .117000009 .24133335 .12900001 .24200002 .143 C .22933336 .13766667 .21833335 .13266666 .209 .128 C .20033334 .12266668 .19600003 .11733333 .19600001 .112 L .21100001 .112 C .209 .10733334 .20500003 .10433334 .19900002 .103 C .19366668 .10100001 .19033335 .09966668 .18900001 .09900001 C .18166667 .097 .176 .095000009 .172 .09300001 C .16866668 .09033334 .16700001 .086666669 .16700001 .082 C .16700001 .07866667 .16733335 .07633334 .16800002 .075 M .224 .10000001 C .22000002 .097333338 .21100001 .09200001 .19700001 .08400001 C .18300002 .07600001 .17533334 .07100001 .17400001 .069000009 C .17600002 .06766667 .17733336 .06600001 .178 .06400001 C .17933333 .062000008 .18 .06066667 .18 .060000004 C .18 .056000007 .17466669 .051333339 .164 .046000005 C .154 .040000004 .14600002 .037 .14000002 .037 C .14000002 .03366667 .14533335 .030333335 .156 .026999996 C .16066666 .030333335 .16466667 .032000007 .16800002 .032000007 C .16933334 .032000007 .17233336 .03133334 .17700002 .030000002 C .18166669 .027999998 .18466668 .026666666 .186 .026000008 L .224 .081 L .224 .10000001 Z "/>
</symbol>
<symbol id="font_0_72">
<path d="M .39500005 .462 C .3983334 .462 .40333335 .4 .41000004 .276 C .41666667 .15266668 .42 .07066667 .42000003 .030000002 C .41666667 .018000002 .4086667 .010333333 .39600004 .0069999999 C .38333337 .003666666 .3666667 .0019999995 .34600003 .0019999995 C .332 .0019999995 .32266668 .0043333328 .31800003 .009 C .31333334 .013666667 .311 .022666669 .311 .036 L .31200005 .065000008 C .30933336 .063 .3026667 .055666668 .292 .043 C .28133337 .031000002 .266 .020666667 .246 .012 C .22600001 .004 .19866668 0 .164 0 C .11533334 0 .078 .020333335 .052 .061000006 C .026 .102333348 .011 .15166669 .0069999995 .209 L 0 .28300003 L 0 .296 C .008000001 .336 .012000002 .35833336 .012000002 .363 C .012000002 .37100003 .011000001 .38300003 .009 .39900003 L .0069999995 .43100003 L .0069999995 .441 C .0069999995 .451 .008666667 .46100006 .012000002 .47100003 C .016 .48166669 .022333334 .48700003 .031000004 .48700003 L .09300001 .48000003 C .09766668 .48000003 .10100001 .47300003 .103 .45900003 C .105666678 .44566668 .107000019 .4326667 .10700001 .42000003 C .107000019 .40533338 .10633334 .3906667 .105000007 .37600003 L .111 .37 L .11 .256 C .10999999 .216 .11266667 .185 .118 .163 C .123333338 .14100002 .134 .124333348 .15 .113000009 C .16600001 .10233334 .19033335 .097 .223 .097 C .24833335 .097 .2686667 .09933334 .28400005 .10400001 C .29933337 .10866668 .3116667 .11900001 .32100005 .135 L .32200004 .171 C .32200004 .19500001 .3206667 .231 .31800003 .279 C .3146667 .319 .31300003 .35533334 .31300003 .388 C .31300003 .40066669 .31300003 .4136667 .31300003 .42700003 C .31366668 .441 .31433336 .45066668 .315 .45600004 L .32600004 .462 L .39500005 .462 M .037 .36200003 C .037 .35533334 .039 .3516667 .043000007 .351 C .045000007 .35700003 .048333337 .36233334 .053000004 .367 C .058333339 .37233333 .06133334 .37533335 .062000008 .37600003 C .068666677 .38266669 .07333334 .388 .076000008 .39200003 C .079333338 .39666669 .081 .40233336 .081 .409 C .081 .42233337 .079333338 .42900003 .076000008 .42900003 C .07266667 .42966668 .071 .4306667 .071 .432 C .071 .43466667 .072333339 .43966667 .075 .44700004 C .075 .4536667 .062333336 .45700003 .037 .45700003 L .037 .419 L .042000005 .396 C .042000008 .39333336 .041000006 .38900004 .039000006 .38300003 C .037666669 .37766669 .037 .37233333 .037 .367 L .037 .36200003 M .34000004 .391 C .35133336 .38833336 .357 .3856667 .357 .38300003 C .357 .38166667 .354 .37800003 .348 .372 C .34266673 .36600004 .34000004 .36 .34000004 .354 C .34000004 .35266666 .34033338 .35066668 .34100003 .34800003 C .34233333 .346 .344 .345 .34600003 .345 C .36066667 .35366667 .36933337 .36166669 .37200005 .36900003 C .3753334 .377 .377 .39233337 .37700004 .41500003 C .377 .42233337 .37600003 .428 .374 .432 C .37199999 .43600003 .36766664 .43800006 .361 .43800003 L .34600003 .437 L .34000004 .391 M .050000006 .345 C .064 .345 .07300001 .346 .07700001 .34800003 C .08166667 .35000003 .084000017 .35600005 .08400001 .366 C .084000017 .36866666 .08266667 .37399999 .08 .382 C .062000004 .36666668 .052000006 .3543333 .050000006 .345 M .35800005 .315 C .3546667 .315 .35066668 .31366668 .34600003 .31100003 C .3413333 .30833338 .339 .30633334 .339 .305 C .339 .30166669 .34 .298 .342 .294 C .344 .29 .34633336 .28800003 .34900005 .28800003 C .35700003 .28800003 .3646667 .29533337 .37200005 .31 C .37933336 .32466669 .38300003 .33633337 .38300003 .345 C .38300003 .347 .382 .34933339 .38 .352 C .37866668 .35466669 .37733338 .35600005 .37600006 .356 L .34600003 .326 L .34500004 .324 C .34500004 .32133336 .34633336 .319 .34900005 .317 C .3516667 .31566669 .3546667 .315 .35800005 .315 M .075 .338 C .062333336 .33799998 .053000004 .33733333 .047000007 .336 C .04166667 .3346667 .03766667 .331 .035000005 .32500003 C .032333338 .319 .031000004 .30933336 .031000004 .296 C .04166667 .30333335 .051666675 .31100003 .061000006 .319 C .07033334 .32766668 .075 .33400003 .075 .338 M .087 .321 C .08699999 .32233335 .086666669 .323 .08600001 .323 C .08266667 .323 .072000008 .316 .054000006 .30200003 C .045333338 .29466669 .039666669 .29033337 .037 .289 L .037 .28300003 L .072000008 .278 C .074 .27866668 .07633334 .2796667 .079 .28100003 C .082333337 .28300003 .085 .284 .087 .284 L .087 .321 M .351 .262 C .35099999 .2606667 .352 .25766669 .35400004 .25300003 C .3566667 .24900002 .36033336 .24700003 .365 .24700001 C .35566668 .24700003 .35 .24266668 .348 .23400001 C .34600006 .22533334 .34500004 .21433334 .34500004 .201 C .35500003 .20100002 .36333335 .205 .37 .213 C .37733338 .221 .38100005 .23000002 .38100005 .24000001 L .37 .24000001 C .37533335 .244 .37833334 .25066669 .379 .26000003 C .37966667 .27 .38 .28166668 .38 .29500003 C .37133337 .29500003 .3643334 .29166667 .35900004 .285 C .3536667 .27833335 .35099999 .2706667 .351 .262 M .029 .26500003 C .029 .24033334 .031666668 .228 .037 .228 L .069000009 .25800003 L .069000009 .26500003 L .029 .26500003 M .087 .25800003 C .06966667 .24266668 .051000004 .22233333 .031000004 .197 L .087 .197 C .08766667 .19699998 .08866667 .199 .09 .20300001 C .09200001 .20766668 .09300002 .21166666 .09300001 .215 C .09300002 .223 .09200001 .23033333 .09 .237 C .08933333 .23966669 .08866667 .24266668 .088 .246 C .08733333 .24933334 .08699999 .25333337 .087 .25800003 M .357 .177 C .369 .177 .37666667 .17833334 .38 .18100001 C .38333334 .18433334 .385 .19233334 .385 .205 C .37833334 .205 .37199999 .202 .366 .19600001 C .35999999 .19066668 .357 .18433334 .357 .177 M .037 .167 C .037 .15566667 .037666669 .14733334 .039000006 .142 C .041000006 .13666667 .046000005 .134 .054000006 .134 C .064666669 .134 .07466667 .13599999 .08400001 .14 C .094000007 .14466667 .09900001 .15133333 .09900001 .16 C .09900001 .164 .09833334 .16700001 .097 .169 C .09566667 .171 .09233334 .172 .087 .172 C .085 .17133333 .08100001 .16733332 .075 .16 C .069000009 .15266668 .06466667 .14633334 .062000008 .141 L .050000006 .147 C .064 .163 .072000008 .17533334 .074 .184 C .06933334 .18333334 .06333333 .18300002 .056 .183 C .049333335 .18300002 .04433334 .182 .041 .18 C .038333335 .17800002 .037 .17366667 .037 .167 M .35800005 .16600001 C .35333336 .16600001 .35099999 .162 .351 .154 L .351 .147 C .35099999 .13966668 .35333336 .13566667 .35800005 .135 C .3706667 .14766668 .377 .15466666 .37700004 .156 C .377 .15799999 .3746667 .16 .37 .162 C .36533336 .16466667 .36133338 .16600001 .35800005 .16600001 M .384 .10400001 C .3873333 .10400001 .38900004 .10833334 .389 .117000009 C .38833333 .120333347 .387 .124333348 .385 .12900001 C .38300003 .13366668 .3816667 .136 .38100005 .136 C .3756667 .136 .37066666 .13366668 .366 .12900001 C .36133338 .124333348 .3586667 .12200001 .35800005 .12200001 C .35800005 .11933335 .3586667 .116666678 .36 .11400001 C .36133335 .11200001 .363 .11066667 .365 .11000001 C .359 .10066667 .3516667 .093 .343 .087000008 C .33500005 .081 .32933337 .078 .32600004 .078 C .32600004 .074 .32700003 .07133334 .329 .07 C .331 .06866667 .33233337 .06766667 .333 .067 L .37 .09200001 L .37 .108 C .3726667 .108 .37533335 .10733334 .37800003 .106000009 C .3806667 .10466667 .38266669 .10400001 .384 .10400001 M .08 .061000006 C .09599999 .056333338 .10633334 .052333338 .111 .049000004 L .148 .067 L .148 .07300001 L .136 .07300001 L .136 .086 L .08 .086 L .08 .093 L .09300001 .09200001 C .109000008 .09200001 .117000009 .09600001 .117 .10400001 C .117000009 .106000009 .116333339 .10833334 .11500001 .11100001 C .113666679 .113666679 .112333338 .11566668 .111 .117000009 L .09300001 .10400001 C .09300002 .10800001 .094000007 .113000009 .096 .11900001 C .09800001 .12500002 .09900001 .13033335 .09900001 .135 C .097 .13366668 .091 .13166668 .081 .12900001 C .071 .127 .063 .12466667 .057000005 .12200001 C .051666667 .11933335 .049000008 .11533334 .049000004 .11000001 L .050000006 .10400001 L .08 .061000006 M .36300005 .054000006 C .38033334 .054000006 .38900004 .059000005 .389 .069000009 C .38900004 .075 .38833333 .079333338 .38700003 .082 C .38633339 .08533334 .38433338 .087000008 .38100005 .087000008 C .37366668 .087000008 .36600004 .083333339 .35800005 .076000008 C .35066668 .068666677 .34666667 .061666669 .34600003 .055 L .36300005 .054000006 M .30300004 .07300001 L .29000003 .074 C .28266666 .074 .27699999 .07366667 .273 .07300001 C .26900003 .072333339 .26433335 .07033334 .259 .067 L .16700001 .067 C .16433335 .067 .15766667 .06366667 .147 .057000005 C .13700001 .051 .12933333 .046000005 .12400001 .042000005 C .13400002 .034 .15333335 .030000002 .18200001 .030000002 C .18800001 .030000002 .19300002 .03066667 .19700001 .032 C .20100002 .033333336 .20533335 .03666667 .21000003 .042000005 L .21000003 .028 C .22933334 .028000003 .24333334 .030000002 .25200004 .034 C .26133339 .038 .27 .047000003 .278 .061000006 L .28500004 .055 L .30300004 .07300001 M .38300003 .037 L .38300003 .042000005 L .34100003 .035000005 L .35000003 .026 L .38300003 .037 Z "/>
</symbol>
<symbol id="font_0_6a">
<path d="M .0069999995 .019999996 C .04633333 .024000004 .066 .033000009 .066 .047000007 C .06133334 .047000007 .057 .04633334 .053 .045 C .049 .043666666 .04633333 .042666664 .044999999 .041999997 C .03833333 .038666667 .031666668 .037 .025000003 .037 C .016333333 .037 .011999998 .039666669 .011999998 .045 L .011999998 .272 C .011999998 .27866668 .010999999 .286 .009 .29400004 C .007666666 .3026667 .0069999995 .308 .0069999995 .31 C .0069999995 .32000003 .008 .33433334 .010000002 .35300002 L .011999998 .39600004 C .011999998 .41466669 .010999999 .43033339 .009 .44300003 C .0070000009 .47300006 .006000001 .49633337 .006000001 .513 C .006000001 .54766669 .006333334 .5683333 .0069999995 .57500007 L 0 .58000007 C .0013333336 .586 .002666667 .5933334 .0040000008 .60200008 C .005333334 .6106667 .006333334 .61800006 .0069999995 .624 C .0069999995 .62533339 .004666666 .6376667 0 .661 C 0 .67766669 .0029999999 .688 .009 .69200006 C .0150000019 .69600006 .027666668 .698 .047000003 .698 C .059 .698 .066999997 .69766667 .070999998 .697 C .074999999 .6963334 .078666668 .69400009 .082 .69000008 C .085333328 .68600007 .088999997 .6806667 .092999998 .674 C .115 .68533346 .138 .695 .162 .703 C .18666667 .71166667 .20866668 .716 .22800002 .716 C .29533337 .716 .34800003 .69633337 .386 .657 C .42466668 .6176667 .444 .56600007 .444 .50200006 L .444 .458 C .444 .41466666 .44000004 .38366667 .432 .365 C .42733336 .3536667 .41700004 .33833338 .40100003 .319 C .3856667 .29966668 .36933337 .28266669 .352 .268 C .33466665 .25333334 .32000003 .246 .308 .246 C .32466666 .26066668 .333 .26833336 .333 .26900003 C .333 .26966668 .33266668 .27 .33200003 .27 C .3306667 .27 .32233335 .26500003 .307 .25500003 L .278 .23600002 C .276 .23333335 .27400003 .23200001 .272 .23200001 C .27 .23200001 .266 .23333335 .26000003 .23600002 C .25400005 .23800002 .24900002 .23900001 .245 .23900001 C .23500002 .23900001 .22566669 .23366668 .21700001 .223 C .21233334 .22366667 .19366668 .228 .161 .23600002 C .15833335 .24266668 .15200001 .24733334 .142 .25 C .13200002 .25333337 .12366667 .25500003 .117 .25500003 C .113666679 .25500003 .108666669 .25400005 .102 .252 C .09599999 .25066666 .092999998 .24933334 .092999998 .24800001 L .092999998 .049999998 C .097 .03933333 .09900001 .027666664 .09900001 .015000001 C .09900001 .011000003 .09366667 .0076666676 .083000008 .004999995 C .072333339 .0016666651 .05566667 0 .033000005 0 C .021666667 0 .012999999 .000333334 .0069999995 .001000002 L .0069999995 .019999996 M .08 .59300008 C .08266667 .58900007 .087000008 .587 .092999998 .587 C .107 .587 .11966667 .5916667 .131 .601 C .143 .61100009 .15566667 .6246667 .169 .642 C .17766667 .65266677 .18433334 .6603334 .18900001 .665 C .19433333 .6703334 .19933333 .67333337 .204 .674 C .204 .67333337 .203 .6713334 .201 .66800007 C .199 .6646667 .19800002 .66233339 .19800002 .661 C .19800002 .6596667 .19866669 .6573334 .20000002 .65400007 C .20200002 .6513334 .20333334 .6496667 .204 .64900007 C .21133334 .65300008 .21766667 .6560001 .22300002 .65800008 C .23633333 .6613334 .24633335 .66833338 .25300003 .679 C .24766667 .6823333 .24266668 .6843333 .238 .68500009 C .23400001 .68633338 .22833334 .68700006 .22100002 .68700006 C .19833334 .68700006 .18 .6836667 .16600001 .67700007 C .152 .6703334 .138 .6586667 .124 .642 L .126 .64100006 C .128 .64100006 .13033335 .642 .133 .64400008 C .13633333 .646 .13966666 .6476667 .143 .64900007 L .14400001 .646 C .14400001 .6413334 .14066668 .6360001 .134 .63000008 C .12733333 .6246667 .11766666 .61833336 .105000007 .611 C .09033334 .6016667 .082 .5956667 .08 .59300008 M .287 .674 C .28433336 .674 .28166668 .6726667 .279 .67 C .27700005 .66733339 .27600003 .66433337 .27600003 .661 L .29700003 .661 C .29700003 .66433337 .296 .66733339 .294 .67 C .29266668 .6726667 .29033334 .674 .287 .674 M .025000003 .65500006 C .025666664 .6516667 .027333329 .6466667 .029999998 .64000007 C .032666666 .63400009 .035 .63066676 .037000006 .63000008 C .041000006 .6333334 .045 .6373334 .049 .642 C .05366667 .6466667 .056000007 .65000006 .056000007 .652 C .056000007 .6560001 .052666669 .6593334 .046 .66200008 C .040000004 .6653334 .035333337 .66700008 .032 .66700008 C .030666665 .6663334 .029 .6646667 .026999999 .66200008 C .025666669 .6593334 .025 .65700009 .025000003 .65500006 M .062000004 .632 C .05333333 .632 .045 .62733337 .037000006 .61800006 L .062000004 .61800006 L .062000004 .632 M .09199999 .46000005 C .09266666 .41733337 .10566666 .38133336 .131 .35200004 C .157 .32333336 .19166668 .30900003 .23500002 .30900003 C .257 .30900003 .27566669 .31100003 .291 .315 C .30633334 .319 .318 .32766668 .326 .34100003 C .324 .3416667 .32266668 .34300003 .322 .34500004 C .32133333 .34766666 .321 .35033334 .321 .35300002 C .321 .35633336 .3216667 .35933338 .323 .36200003 C .32500003 .36533336 .32766668 .367 .331 .367 C .331 .37300004 .33366669 .3806667 .33900003 .39000003 C .3396667 .39133335 .341 .39400003 .34300003 .398 C .34500004 .4026667 .34600006 .40700004 .34600003 .411 C .34600006 .41433335 .34500004 .419 .34300003 .425 C .341 .4316667 .34 .4366667 .34 .44000004 C .34 .44200004 .341 .4446667 .34300003 .448 C .34566669 .45133338 .34733335 .45333336 .34800003 .45400004 C .34800003 .456 .34433333 .46100006 .337 .46900005 C .32966668 .477 .326 .48233334 .326 .485 C .326 .4876667 .327 .49100004 .329 .495 C .33166669 .4996667 .333 .5026667 .333 .504 C .33166669 .50600007 .32933335 .51066669 .326 .518 C .32266668 .52533337 .321 .53000006 .321 .532 L .321 .549 C .321 .555 .32000003 .5593334 .31800003 .56200006 C .316 .56533339 .31266666 .5693334 .308 .574 C .29933334 .58 .29500003 .5876667 .29500003 .597 C .289 .597 .28066669 .59966668 .27 .605 C .25933335 .611 .252 .6153334 .248 .61800006 L .21000001 .61200007 L .21000001 .619 C .20600002 .619 .20133333 .61733338 .19600001 .614 C .19133334 .6106667 .18666668 .60700008 .18200001 .60300007 C .17 .5923334 .16066666 .587 .154 .587 C .15133333 .587 .14933335 .5873334 .148 .588 L .13 .56200006 L .124 .56200006 C .11933333 .56200006 .11266667 .54800006 .104 .52000007 C .09599999 .49266673 .091999989 .4726667 .09199999 .46000005 M .37600003 .61300006 C .37133337 .61300006 .3676667 .61200007 .365 .61 C .36233334 .60800006 .36 .6043334 .358 .59900006 L .37 .59800007 L .37300004 .59800007 C .38233338 .59800007 .3876667 .6006667 .38900004 .606 C .387 .60933336 .385 .6113334 .38300003 .61200007 C .38166667 .61266669 .37933336 .61300006 .37600003 .61300006 M .062000004 .544 C .06266668 .5413334 .065000008 .53766676 .069000009 .53300008 C .07366667 .52900007 .07733334 .52633336 .08 .52500006 C .08466667 .52766677 .08833333 .5336667 .091000009 .54300007 C .09433333 .55300006 .097 .5593334 .09900001 .56200006 L .074 .56200006 L .08 .568 L .07699999 .569 C .07299999 .569 .06933333 .5656667 .066 .559 C .06333333 .55300006 .062000004 .54800006 .062000004 .544 M .358 .544 C .358 .54 .362 .53800007 .37 .53800007 C .39466668 .53800007 .40699999 .54333338 .407 .554 C .40699999 .5553334 .40633334 .5576667 .405 .56100007 C .40433336 .5643334 .40300004 .56666669 .40100003 .568 C .39233337 .5646667 .38300003 .5603333 .37300004 .555 C .363 .5496667 .358 .54600009 .358 .544 M .018999998 .532 C .020333333 .5286667 .022666669 .52533337 .025999997 .522 C .030000002 .51933339 .033000005 .518 .035 .518 C .036333339 .518 .038000004 .5196667 .040000004 .523 C .042 .52633336 .043 .52933338 .043 .532 L .018999998 .532 M .38300003 .44000004 C .38366667 .4386667 .38733337 .43633334 .39400003 .43300004 C .40066669 .43033339 .405 .42833338 .407 .42700003 L .41000004 .42700003 C .41333334 .42700003 .4156667 .43466667 .41700004 .45000003 C .41900004 .46600006 .42 .4786667 .42000003 .48800005 C .42 .49333338 .4186667 .49900005 .416 .505 C .41400004 .511 .411 .514 .407 .514 C .39900003 .50600007 .392 .5006667 .386 .49800004 C .3806667 .49600003 .377 .49433337 .375 .49300004 C .373 .49166668 .372 .489 .372 .485 L .405 .485 C .405 .48433338 .40533338 .4826667 .40600003 .48000003 C .40666668 .47800002 .40699999 .47533337 .407 .472 C .40699999 .46733336 .404 .4616667 .398 .45500005 C .39266668 .44833336 .3876667 .44333337 .38300003 .44000004 M .056000007 .458 L .062000004 .458 L .062000004 .47000004 L .056000007 .458 M .05 .402 C .042 .398 .036666667 .39366666 .033999999 .389 C .032 .385 .030999998 .37900005 .031 .37100003 C .039 .3756667 .044 .38000003 .046 .384 C .048666669 .388 .05 .39400003 .05 .402 M .395 .365 C .4036667 .37100003 .40800003 .38033334 .40800003 .393 L .407 .402 C .40300004 .4006667 .3976667 .39800004 .391 .39400003 C .38433335 .3906667 .37933336 .387 .37600003 .38300003 L .395 .365 M .05 .365 C .074666667 .365 .08699999 .36933337 .087 .37800003 C .08699999 .38000003 .086333338 .38300003 .08499999 .38700003 C .08433334 .39100004 .08266667 .393 .08 .393 C .077999997 .393 .076 .392 .074 .39000003 L .05 .365 M .053 .34600003 C .047000003 .34600006 .04166667 .34500004 .037000006 .34300003 C .032333334 .3416667 .029999996 .3396667 .029999998 .337 L .031 .33400003 C .032333334 .3346667 .036000004 .33566667 .042 .337 C .04866667 .33900003 .05333334 .342 .056000007 .34600003 L .053 .34600003 M .105000007 .32200004 C .10699999 .32200004 .10866666 .32333336 .11 .326 C .11133333 .3286667 .11200001 .3306667 .112 .33200003 C .11066667 .33666668 .108 .34 .104 .342 C .1 .3446667 .09633333 .34600006 .092999998 .34600003 L .105000007 .32200004 M .39000003 .335 C .388 .33433334 .387 .33300004 .38700003 .33100004 C .387 .32766668 .3876667 .32466669 .38900004 .32200004 L .40100003 .33400003 L .39000003 .335 M .056000007 .29700003 C .045333338 .29166667 .039000006 .28133334 .037000006 .266 L .054 .26500003 C .064 .26500003 .069000009 .26866669 .069000009 .27600003 C .069000009 .27933336 .06766667 .28300003 .065 .287 C .062333336 .2916667 .059333337 .29500006 .056000007 .29700003 M .271 .26000003 C .27699999 .26333336 .28 .26733337 .28 .272 L .259 .272 L .271 .26000003 M .241 .25500003 C .237 .25900004 .23233335 .26266668 .227 .266 C .22166668 .26933337 .21666669 .27100004 .21200001 .27100004 C .20266669 .27100004 .19700001 .2656667 .195 .25500003 L .241 .25500003 M .16700001 .26900003 C .15233334 .26900003 .14433334 .26600004 .143 .26000003 L .16700001 .26000003 L .16700001 .26900003 M .037000006 .24200002 C .040333336 .24000001 .042999999 .237 .044999999 .23300001 C .047666667 .22833336 .05 .22500001 .052000006 .223 C .054000006 .22033334 .057333337 .21866668 .062000004 .21800001 C .06733333 .22333335 .06999999 .23066668 .06999999 .24000001 C .058666666 .24000001 .052 .24266668 .05 .24800001 C .049333335 .24800001 .045 .246 .037000006 .24200002 M .043 .069000009 C .043666673 .068333338 .044666668 .06733333 .046 .066 C .047333335 .06466667 .04866667 .06366668 .05 .06300001 C .06266667 .06300001 .069000009 .06666667 .069000009 .074 C .069000009 .08200001 .068333338 .090666677 .067 .10000001 C .06633333 .10933334 .066 .11633334 .066 .12100001 C .06333333 .14233333 .062000004 .15833333 .062000004 .169 C .062000004 .18433333 .05466667 .19199999 .040000004 .192 C .037333337 .19199999 .034333335 .191 .031 .18900001 C .02833333 .18633335 .026333332 .18466668 .025000003 .18400002 L .043 .18400002 C .039666669 .18066669 .036666667 .177 .033999999 .17300001 C .032 .16900002 .030999998 .16600001 .031 .164 C .032333334 .15866669 .03566667 .15100001 .040999999 .141 C .04633333 .13033334 .049333335 .12466667 .05 .124000009 L .043 .119 L .043 .069000009 Z "/>
</symbol>
<use xlink:href="#font_0_1e" transform="matrix(33.333333,0,0,-33.333333,.23333334,29.822236)"/>
<use xlink:href="#font_0_62" transform="matrix(33.333333,0,0,-33.333333,9.700007,24.888903)"/>
<use xlink:href="#font_0_5e" transform="matrix(33.333333,0,0,-33.333333,30.100005,25.055569)"/>
<use xlink:href="#font_0_5e" transform="matrix(33.333333,0,0,-33.333333,39.63333,25.055569)"/>
<use xlink:href="#font_0_7a" transform="matrix(33.333333,0,0,-33.333333,46.700006,32.55557)"/>
<use xlink:href="#font_0_72" transform="matrix(33.333333,0,0,-33.333333,67.066669,24.65557)"/>
<use xlink:href="#font_0_6a" transform="matrix(33.333333,0,0,-33.333333,86.433338,32.288904)"/>
</g>
</svg>
